<?plantuml 1.2026.2?><svg xmlns="http://www.w3.org/2000/svg" xmlns:xlink="http://www.w3.org/1999/xlink" contentStyleType="text/css" data-diagram-type="CLASS" height="431px" preserveAspectRatio="none" style="width:972px;height:431px;background:#FFFFFF;" version="1.1" viewBox="0 0 972 431" width="972px" zoomAndPan="magnify"><title>UML Diagram - MessageCreator &amp; Message using Factory Method Design Pattern</title><defs/><g><g class="title" data-source-line="1"><text fill="#000000" font-family="sans-serif" font-size="14" font-weight="bold" lengthAdjust="spacing" textLength="641.416" x="158.5708" y="22.9951">UML Diagram - MessageCreator &amp; Message using Factory Method Design Pattern</text></g><!--class Message--><g class="entity" data-qualified-name="Message" data-source-line="3" id="ent0002"><rect fill="#F1F1F1" height="105.1563" rx="2.5" ry="2.5" style="stroke:#181818;stroke-width:0.5;" width="211.4932" x="505.5" y="194.2969"/><ellipse cx="576.3169" cy="214.4297" fill="#A9DCDF" rx="11" ry="11" style="stroke:#181818;stroke-width:1;"/><path d="M576.4263,209.7734 L575.27,214.8516 L577.5981,214.8516 L576.4263,209.7734 Z M574.9419,207.5391 L577.9263,207.5391 L581.2856,219.9297 L578.8325,219.9297 L578.0669,216.8672 L574.7856,216.8672 L574.0356,219.9297 L571.5981,219.9297 L574.9419,207.5391 Z " fill="#000000"/><text fill="#000000" font-family="sans-serif" font-size="12" font-style="italic" lengthAdjust="spacing" textLength="64.3301" x="595.3315" y="210.4355">&#171;abstract&#187;</text><text fill="#000000" font-family="sans-serif" font-size="14" font-style="italic" lengthAdjust="spacing" textLength="61.3594" x="596.8169" y="226.2607">Message</text><line style="stroke:#181818;stroke-width:0.5;" x1="506.5" x2="715.9932" y1="234.5625" y2="234.5625"/><line style="stroke:#181818;stroke-width:0.5;" x1="506.5" x2="715.9932" y1="242.5625" y2="242.5625"/><g data-visibility-modifier="PUBLIC_METHOD"><ellipse cx="516.5" cy="256.2109" fill="#84BE84" rx="3" ry="3" style="stroke:#038048;stroke-width:1;"/></g><text fill="#000000" font-family="sans-serif" font-size="14" font-style="italic" lengthAdjust="spacing" textLength="140.54" x="525.5" y="259.5576">getContent(): String</text><g data-visibility-modifier="PUBLIC_METHOD"><ellipse cx="516.5" cy="272.5078" fill="#84BE84" rx="3" ry="3" style="stroke:#038048;stroke-width:1;"/></g><text fill="#000000" font-family="sans-serif" font-size="14" lengthAdjust="spacing" textLength="185.4932" x="525.5" y="275.8545">addDefaultHeaders(): void</text><g data-visibility-modifier="PUBLIC_METHOD"><ellipse cx="516.5" cy="288.8047" fill="#84BE84" rx="3" ry="3" style="stroke:#038048;stroke-width:1;"/></g><text fill="#000000" font-family="sans-serif" font-size="14" lengthAdjust="spacing" textLength="103.3184" x="525.5" y="292.1514">encrypt(): void</text></g><!--class MessageCreator--><g class="entity" data-qualified-name="MessageCreator" data-source-line="9" id="ent0003"><rect fill="#F1F1F1" height="88.8594" rx="2.5" ry="2.5" style="stroke:#181818;stroke-width:0.5;" width="213.5576" x="379" y="44.2969"/><ellipse cx="424.582" cy="64.4297" fill="#A9DCDF" rx="11" ry="11" style="stroke:#181818;stroke-width:1;"/><path d="M424.6914,59.7734 L423.5352,64.8516 L425.8633,64.8516 L424.6914,59.7734 Z M423.207,57.5391 L426.1914,57.5391 L429.5508,69.9297 L427.0977,69.9297 L426.332,66.8672 L423.0508,66.8672 L422.3008,69.9297 L419.8633,69.9297 L423.207,57.5391 Z " fill="#000000"/><text fill="#000000" font-family="sans-serif" font-size="12" font-style="italic" lengthAdjust="spacing" textLength="64.3301" x="469.8638" y="60.4355">&#171;abstract&#187;</text><text fill="#000000" font-family="sans-serif" font-size="14" font-style="italic" lengthAdjust="spacing" textLength="113.8936" x="445.082" y="76.2607">MessageCreator</text><line style="stroke:#181818;stroke-width:0.5;" x1="380" x2="591.5576" y1="84.5625" y2="84.5625"/><line style="stroke:#181818;stroke-width:0.5;" x1="380" x2="591.5576" y1="92.5625" y2="92.5625"/><g data-visibility-modifier="PUBLIC_METHOD"><ellipse cx="390" cy="106.2109" fill="#84BE84" rx="3" ry="3" style="stroke:#038048;stroke-width:1;"/></g><text fill="#000000" font-family="sans-serif" font-size="14" font-style="italic" lengthAdjust="spacing" textLength="187.5576" x="399" y="109.5576">createMessage(): Message</text><g data-visibility-modifier="PUBLIC_METHOD"><ellipse cx="390" cy="122.5078" fill="#84BE84" rx="3" ry="3" style="stroke:#038048;stroke-width:1;"/></g><text fill="#000000" font-family="sans-serif" font-size="14" lengthAdjust="spacing" textLength="165.7988" x="399" y="125.8545">getMessage(): Message</text></g><!--class TextMessage--><g class="entity" data-qualified-name="TextMessage" data-source-line="14" id="ent0004"><rect fill="#F1F1F1" height="48" rx="2.5" ry="2.5" style="stroke:#181818;stroke-width:0.5;" width="124.2988" x="426" y="376.2969"/><ellipse cx="441" cy="392.2969" fill="#ADD1B2" rx="11" ry="11" style="stroke:#181818;stroke-width:1;"/><path d="M443.9688,397.9375 Q443.3906,398.2344 442.75,398.375 Q442.1094,398.5313 441.4063,398.5313 Q438.9063,398.5313 437.5781,396.8906 Q436.2656,395.2344 436.2656,392.1094 Q436.2656,388.9844 437.5781,387.3281 Q438.9063,385.6719 441.4063,385.6719 Q442.1094,385.6719 442.75,385.8281 Q443.4063,385.9844 443.9688,386.2813 L443.9688,389 Q443.3438,388.4219 442.75,388.1563 Q442.1563,387.875 441.5313,387.875 Q440.1875,387.875 439.5,388.9531 Q438.8125,390.0156 438.8125,392.1094 Q438.8125,394.2031 439.5,395.2813 Q440.1875,396.3438 441.5313,396.3438 Q442.1563,396.3438 442.75,396.0781 Q443.3438,395.7969 443.9688,395.2188 L443.9688,397.9375 Z " fill="#000000"/><text fill="#000000" font-family="sans-serif" font-size="14" lengthAdjust="spacing" textLength="92.2988" x="455" y="397.1436">TextMessage</text><line style="stroke:#181818;stroke-width:0.5;" x1="427" x2="549.2988" y1="408.2969" y2="408.2969"/><line style="stroke:#181818;stroke-width:0.5;" x1="427" x2="549.2988" y1="416.2969" y2="416.2969"/></g><!--class JSONMessage--><g class="entity" data-qualified-name="JSONMessage" data-source-line="15" id="ent0006"><rect fill="#F1F1F1" height="48" rx="2.5" ry="2.5" style="stroke:#181818;stroke-width:0.5;" width="127.8672" x="588" y="376.2969"/><ellipse cx="603" cy="392.2969" fill="#ADD1B2" rx="11" ry="11" style="stroke:#181818;stroke-width:1;"/><path d="M605.9688,397.9375 Q605.3906,398.2344 604.75,398.375 Q604.1094,398.5313 603.4063,398.5313 Q600.9063,398.5313 599.5781,396.8906 Q598.2656,395.2344 598.2656,392.1094 Q598.2656,388.9844 599.5781,387.3281 Q600.9063,385.6719 603.4063,385.6719 Q604.1094,385.6719 604.75,385.8281 Q605.4063,385.9844 605.9688,386.2813 L605.9688,389 Q605.3438,388.4219 604.75,388.1563 Q604.1563,387.875 603.5313,387.875 Q602.1875,387.875 601.5,388.9531 Q600.8125,390.0156 600.8125,392.1094 Q600.8125,394.2031 601.5,395.2813 Q602.1875,396.3438 603.5313,396.3438 Q604.1563,396.3438 604.75,396.0781 Q605.3438,395.7969 605.9688,395.2188 L605.9688,397.9375 Z " fill="#000000"/><text fill="#000000" font-family="sans-serif" font-size="14" lengthAdjust="spacing" textLength="95.8672" x="617" y="397.1436">JSONMessage</text><line style="stroke:#181818;stroke-width:0.5;" x1="589" x2="714.8672" y1="408.2969" y2="408.2969"/><line style="stroke:#181818;stroke-width:0.5;" x1="589" x2="714.8672" y1="416.2969" y2="416.2969"/></g><!--class TextMessageCreator--><g class="entity" data-qualified-name="TextMessageCreator" data-source-line="17" id="ent0008"><rect fill="#F1F1F1" height="64.2969" rx="2.5" ry="2.5" style="stroke:#181818;stroke-width:0.5;" width="213.5576" x="7" y="214.7969"/><ellipse cx="38.5261" cy="230.7969" fill="#ADD1B2" rx="11" ry="11" style="stroke:#181818;stroke-width:1;"/><path d="M41.4948,236.4375 Q40.9167,236.7344 40.2761,236.875 Q39.6354,237.0313 38.9323,237.0313 Q36.4323,237.0313 35.1042,235.3906 Q33.7917,233.7344 33.7917,230.6094 Q33.7917,227.4844 35.1042,225.8281 Q36.4323,224.1719 38.9323,224.1719 Q39.6354,224.1719 40.2761,224.3281 Q40.9323,224.4844 41.4948,224.7813 L41.4948,227.5 Q40.8698,226.9219 40.2761,226.6563 Q39.6823,226.375 39.0573,226.375 Q37.7136,226.375 37.0261,227.4531 Q36.3386,228.5156 36.3386,230.6094 Q36.3386,232.7031 37.0261,233.7813 Q37.7136,234.8438 39.0573,234.8438 Q39.6823,234.8438 40.2761,234.5781 Q40.8698,234.2969 41.4948,233.7188 L41.4948,236.4375 Z " fill="#000000"/><text fill="#000000" font-family="sans-serif" font-size="14" lengthAdjust="spacing" textLength="144.833" x="56.1985" y="235.6436">TextMessageCreator</text><line style="stroke:#181818;stroke-width:0.5;" x1="8" x2="219.5576" y1="246.7969" y2="246.7969"/><line style="stroke:#181818;stroke-width:0.5;" x1="8" x2="219.5576" y1="254.7969" y2="254.7969"/><g data-visibility-modifier="PUBLIC_METHOD"><ellipse cx="18" cy="268.4453" fill="#84BE84" rx="3" ry="3" style="stroke:#038048;stroke-width:1;"/></g><text fill="#000000" font-family="sans-serif" font-size="14" lengthAdjust="spacing" textLength="187.5576" x="27" y="271.792">createMessage(): Message</text></g><!--class JSONMessageCreator--><g class="entity" data-qualified-name="JSONMessageCreator" data-source-line="21" id="ent0010"><rect fill="#F1F1F1" height="64.2969" rx="2.5" ry="2.5" style="stroke:#181818;stroke-width:0.5;" width="213.5576" x="752" y="214.7969"/><ellipse cx="781.9203" cy="230.7969" fill="#ADD1B2" rx="11" ry="11" style="stroke:#181818;stroke-width:1;"/><path d="M784.8891,236.4375 Q784.3109,236.7344 783.6703,236.875 Q783.0297,237.0313 782.3266,237.0313 Q779.8266,237.0313 778.4984,235.3906 Q777.1859,233.7344 777.1859,230.6094 Q777.1859,227.4844 778.4984,225.8281 Q779.8266,224.1719 782.3266,224.1719 Q783.0297,224.1719 783.6703,224.3281 Q784.3266,224.4844 784.8891,224.7813 L784.8891,227.5 Q784.2641,226.9219 783.6703,226.6563 Q783.0766,226.375 782.4516,226.375 Q781.1078,226.375 780.4203,227.4531 Q779.7328,228.5156 779.7328,230.6094 Q779.7328,232.7031 780.4203,233.7813 Q781.1078,234.8438 782.4516,234.8438 Q783.0766,234.8438 783.6703,234.5781 Q784.2641,234.2969 784.8891,233.7188 L784.8891,236.4375 Z " fill="#000000"/><text fill="#000000" font-family="sans-serif" font-size="14" lengthAdjust="spacing" textLength="148.4014" x="799.2359" y="235.6436">JSONMessageCreator</text><line style="stroke:#181818;stroke-width:0.5;" x1="753" x2="964.5576" y1="246.7969" y2="246.7969"/><line style="stroke:#181818;stroke-width:0.5;" x1="753" x2="964.5576" y1="254.7969" y2="254.7969"/><g data-visibility-modifier="PUBLIC_METHOD"><ellipse cx="763" cy="268.4453" fill="#84BE84" rx="3" ry="3" style="stroke:#038048;stroke-width:1;"/></g><text fill="#000000" font-family="sans-serif" font-size="14" lengthAdjust="spacing" textLength="187.5576" x="772" y="271.792">createMessage(): Message</text></g><path d="M256,206.2969 L256,276.8281 A0,0 0 0 0 256,276.8281 L470.1274,276.8281 A0,0 0 0 0 470.1274,276.8281 L470.1274,245.5625 L509.5,254.7109 L470.1274,237.5625 L470.1274,216.2969 L460.1274,206.2969 L256,206.2969 A0,0 0 0 0 256,206.2969" fill="#FEFFDD" style="stroke:#181818;stroke-width:0.5;"/><path d="M460.1274,206.2969 L460.1274,216.2969 L470.1274,216.2969 L460.1274,206.2969" fill="#FEFFDD" style="stroke:#181818;stroke-width:0.5;"/><text fill="#000000" font-family="sans-serif" font-size="13" lengthAdjust="spacing" textLength="146.4722" x="262" y="223.3638">Abstract method to be</text><text fill="#000000" font-family="sans-serif" font-size="13" lengthAdjust="spacing" textLength="140.1372" x="262" y="238.4966">implemented by both</text><text fill="#000000" font-family="sans-serif" font-size="13" lengthAdjust="spacing" textLength="193.1274" x="262" y="253.6294">JSONMessage &amp; TextMessage</text><text fill="#000000" font-family="sans-serif" font-size="13" lengthAdjust="spacing" textLength="47.0425" x="262" y="268.7622">classes</text><path d="M628.5,48.2969 L628.5,79.5625 L586.5576,104.7109 L628.5,87.5625 L628.5,118.8281 A0,0 0 0 0 628.5,118.8281 L827.2026,118.8281 A0,0 0 0 0 827.2026,118.8281 L827.2026,58.2969 L817.2026,48.2969 L628.5,48.2969 A0,0 0 0 0 628.5,48.2969" fill="#FEFFDD" style="stroke:#181818;stroke-width:0.5;"/><path d="M817.2026,48.2969 L817.2026,58.2969 L827.2026,58.2969 L817.2026,48.2969" fill="#FEFFDD" style="stroke:#181818;stroke-width:0.5;"/><text fill="#000000" font-family="sans-serif" font-size="13" lengthAdjust="spacing" textLength="158.8184" x="634.5" y="65.3638">Abstract factory method</text><text fill="#000000" font-family="sans-serif" font-size="13" lengthAdjust="spacing" textLength="177.7026" x="634.5" y="80.4966">to be implemented by both</text><text fill="#000000" font-family="sans-serif" font-size="13" lengthAdjust="spacing" textLength="166.3911" x="634.5" y="95.6294">JSONMessageCreator and</text><text fill="#000000" font-family="sans-serif" font-size="13" lengthAdjust="spacing" textLength="134.4878" x="634.5" y="110.7622">TextMessageCreator</text><!--reverse link Message to TextMessage--><g class="link" data-entity-1="ent0002" data-entity-2="ent0004" data-link-type="extension" data-source-line="14" id="lnk5"><path d="M566.415,314.0931 C555.505,329.5831 553.39,331.6369 541,346.2969 C532.35,356.5369 522.08,367.1169 512.89,376.1069" fill="none" id="Message-backto-TextMessage" style="stroke:#181818;stroke-width:1;"/><polygon fill="none" points="576.78,299.3769,561.5096,310.6381,571.3204,317.5481,576.78,299.3769" style="stroke:#181818;stroke-width:1;"/></g><!--reverse link Message to JSONMessage--><g class="link" data-entity-1="ent0002" data-entity-2="ent0006" data-link-type="extension" data-source-line="15" id="lnk7"><path d="M629.7006,316.8823 C636.7506,342.9423 640.25,355.8669 645.74,376.1769" fill="none" id="Message-backto-JSONMessage" style="stroke:#181818;stroke-width:1;"/><polygon fill="none" points="625,299.5069,623.9088,318.4491,635.4924,315.3154,625,299.5069" style="stroke:#181818;stroke-width:1;"/></g><!--reverse link MessageCreator to TextMessageCreator--><g class="link" data-entity-1="ent0003" data-entity-2="ent0008" data-link-type="extension" data-source-line="18" id="lnk9"><path d="M365.2805,140.418 C303.5905,166.288 243.49,191.4969 187.99,214.7669" fill="none" id="MessageCreator-backto-TextMessageCreator" style="stroke:#181818;stroke-width:1;"/><polygon fill="none" points="381.88,133.4569,362.9601,134.8848,367.6009,145.9511,381.88,133.4569" style="stroke:#181818;stroke-width:1;"/></g><!--reverse link MessageCreator to JSONMessageCreator--><g class="link" data-entity-1="ent0003" data-entity-2="ent0010" data-link-type="extension" data-source-line="22" id="lnk11"><path d="M607.0059,140.4026 C668.8559,166.2726 729.16,191.4969 784.81,214.7669" fill="none" id="MessageCreator-backto-JSONMessageCreator" style="stroke:#181818;stroke-width:1;"/><polygon fill="none" points="590.4,133.4569,604.6907,145.9379,609.3212,134.8673,590.4,133.4569" style="stroke:#181818;stroke-width:1;"/></g><!--link TextMessageCreator to TextMessage--><g class="link" data-entity-1="ent0008" data-entity-2="ent0004" data-link-type="dependency" data-source-line="25" id="lnk12"><path codeLine="25" d="M188.36,278.8669 C204.7,285.6369 221.92,292.7369 238,299.2969 C303.58,326.0269 373.5232,353.9335 424.2432,374.0635" fill="none" id="TextMessageCreator-to-TextMessage" style="stroke:#181818;stroke-width:1;stroke-dasharray:7,7;"/><polygon fill="#181818" points="429.82,376.2769,422.9303,369.2389,425.1726,374.4324,419.9792,376.6747,429.82,376.2769" style="stroke:#181818;stroke-width:1;"/><text fill="#000000" font-family="sans-serif" font-size="13" lengthAdjust="spacing" textLength="48.3247" x="356" y="342.3638">creates</text></g><!--link JSONMessageCreator to JSONMessage--><g class="link" data-entity-1="ent0010" data-entity-2="ent0006" data-link-type="dependency" data-source-line="26" id="lnk13"><path codeLine="26" d="M816.61,278.8169 C777.1,307.7369 723.9322,346.6538 688.3722,372.6738" fill="none" id="JSONMessageCreator-to-JSONMessage" style="stroke:#181818;stroke-width:1;stroke-dasharray:7,7;"/><polygon fill="#181818" points="683.53,376.2169,693.1553,374.1303,687.5651,373.2643,688.4312,367.6741,683.53,376.2169" style="stroke:#181818;stroke-width:1;"/><text fill="#000000" font-family="sans-serif" font-size="13" lengthAdjust="spacing" textLength="48.3247" x="744" y="342.3638">creates</text></g><?plantuml-src fLFBQiCm4BpxA_OKMahp0IOOIa8ffMaBQJz0jjQEm9Q2j2ar9l_UbICvJlFeeJSpCzgP7Scag4RuNBx0GedAYWRkOOdEYGhd5WKP2vC8mDOfNS6ZA1Xk6QMraR10foeDxu88hKuIaJkoB86Y5iuDPsUpI6GPT0d07NGHsK65D3UQKDFDRGehicpKQuIK2op5jgOd51Ajy_oNKR9dKHUstT20xIxPnrskfoYy2iCHFpHyzZgEU8PXnxtH1tv77lWJjJpitks2w7drzdf5T3egvlubZd2_mSNKmy2HxNy7diasdMP7swUXHvUSyVNYSGi7SQ8D8THO4fWoMgRfuMLmj8TukSt-xP61tD-EQZOrDgn12NaBkQ4resEVoJWYStqnxCebW3SEzbPLwx5_Y9scHvsCavJXRmY9cEf3_HqfDYAqVykdlGxHVW00?></g></svg>