<?plantuml 1.2026.2?><svg xmlns="http://www.w3.org/2000/svg" xmlns:xlink="http://www.w3.org/1999/xlink" contentStyleType="text/css" data-diagram-type="CLASS" height="628px" preserveAspectRatio="none" style="width:747px;height:628px;background:#FFFFFF;" version="1.1" viewBox="0 0 747 628" width="747px" zoomAndPan="magnify"><title>UML Diagram - Factory Method Design Pattern</title><defs/><g><g class="title" data-source-line="1"><text fill="#000000" font-family="sans-serif" font-size="14" font-weight="bold" lengthAdjust="spacing" textLength="369.1748" x="182.3965" y="22.9951">UML Diagram - Factory Method Design Pattern</text></g><!--class Product--><g class="entity" data-qualified-name="Product" data-source-line="3" id="ent0002"><rect fill="#F1F1F1" height="56.2656" rx="2.5" ry="2.5" style="stroke:#181818;stroke-width:0.5;" width="96.332" x="325.5" y="313.2969"/><ellipse cx="340.5" cy="333.4297" fill="#B4A7E5" rx="11" ry="11" style="stroke:#181818;stroke-width:1;"/><path d="M336.4219,329.1953 L336.4219,327.0391 L343.8125,327.0391 L343.8125,329.1953 L341.3438,329.1953 L341.3438,337.2734 L343.8125,337.2734 L343.8125,339.4297 L336.4219,339.4297 L336.4219,337.2734 L338.8906,337.2734 L338.8906,329.1953 L336.4219,329.1953 Z " fill="#000000"/><text fill="#000000" font-family="sans-serif" font-size="12" font-style="italic" lengthAdjust="spacing" textLength="68.332" x="352.5" y="329.4355">&#171;interface&#187;</text><text fill="#000000" font-family="sans-serif" font-size="14" font-style="italic" lengthAdjust="spacing" textLength="53.71" x="359.811" y="345.2607">Product</text><line style="stroke:#181818;stroke-width:0.5;" x1="326.5" x2="420.832" y1="353.5625" y2="353.5625"/><line style="stroke:#181818;stroke-width:0.5;" x1="326.5" x2="420.832" y1="361.5625" y2="361.5625"/></g><!--class Creator--><g class="entity" data-qualified-name="Creator" data-source-line="4" id="ent0003"><rect fill="#F1F1F1" height="88.8594" rx="2.5" ry="2.5" style="stroke:#181818;stroke-width:0.5;" width="201.6084" x="272.5" y="159.2969"/><ellipse cx="338.8892" cy="179.4297" fill="#A9DCDF" rx="11" ry="11" style="stroke:#181818;stroke-width:1;"/><path d="M338.9985,174.7734 L337.8423,179.8516 L340.1704,179.8516 L338.9985,174.7734 Z M337.5142,172.5391 L340.4985,172.5391 L343.8579,184.9297 L341.4048,184.9297 L340.6392,181.8672 L337.3579,181.8672 L336.6079,184.9297 L334.1704,184.9297 L337.5142,172.5391 Z " fill="#000000"/><text fill="#000000" font-family="sans-serif" font-size="12" font-style="italic" lengthAdjust="spacing" textLength="64.3301" x="357.3892" y="175.4355">&#171;abstract&#187;</text><text fill="#000000" font-family="sans-serif" font-size="14" font-style="italic" lengthAdjust="spacing" textLength="52.5342" x="363.2871" y="191.2607">Creator</text><line style="stroke:#181818;stroke-width:0.5;" x1="273.5" x2="473.1084" y1="199.5625" y2="199.5625"/><line style="stroke:#181818;stroke-width:0.5;" x1="273.5" x2="473.1084" y1="207.5625" y2="207.5625"/><g data-visibility-modifier="PUBLIC_METHOD"><ellipse cx="283.5" cy="221.2109" fill="#84BE84" rx="3" ry="3" style="stroke:#038048;stroke-width:1;"/></g><text fill="#000000" font-family="sans-serif" font-size="14" lengthAdjust="spacing" textLength="175.6084" x="292.5" y="224.5576">factoryMethod(): Product</text><g data-visibility-modifier="PUBLIC_METHOD"><ellipse cx="283.5" cy="237.5078" fill="#84BE84" rx="3" ry="3" style="stroke:#038048;stroke-width:1;"/></g><text fill="#000000" font-family="sans-serif" font-size="14" lengthAdjust="spacing" textLength="118.7061" x="292.5" y="240.8545">someOperation()</text></g><!--class ConcreteProductA--><g class="entity" data-qualified-name="ConcreteProductA" data-source-line="9" id="ent0004"><rect fill="#F1F1F1" height="48" rx="2.5" ry="2.5" style="stroke:#181818;stroke-width:0.5;" width="158.6699" x="487" y="453.7969"/><ellipse cx="502" cy="469.7969" fill="#ADD1B2" rx="11" ry="11" style="stroke:#181818;stroke-width:1;"/><path d="M504.9688,475.4375 Q504.3906,475.7344 503.75,475.875 Q503.1094,476.0313 502.4063,476.0313 Q499.9063,476.0313 498.5781,474.3906 Q497.2656,472.7344 497.2656,469.6094 Q497.2656,466.4844 498.5781,464.8281 Q499.9063,463.1719 502.4063,463.1719 Q503.1094,463.1719 503.75,463.3281 Q504.4063,463.4844 504.9688,463.7813 L504.9688,466.5 Q504.3438,465.9219 503.75,465.6563 Q503.1563,465.375 502.5313,465.375 Q501.1875,465.375 500.5,466.4531 Q499.8125,467.5156 499.8125,469.6094 Q499.8125,471.7031 500.5,472.7813 Q501.1875,473.8438 502.5313,473.8438 Q503.1563,473.8438 503.75,473.5781 Q504.3438,473.2969 504.9688,472.7188 L504.9688,475.4375 Z " fill="#000000"/><text fill="#000000" font-family="sans-serif" font-size="14" lengthAdjust="spacing" textLength="126.6699" x="516" y="474.6436">ConcreteProductA</text><line style="stroke:#181818;stroke-width:0.5;" x1="488" x2="644.6699" y1="485.7969" y2="485.7969"/><line style="stroke:#181818;stroke-width:0.5;" x1="488" x2="644.6699" y1="493.7969" y2="493.7969"/></g><!--class ConcreteProductB--><g class="entity" data-qualified-name="ConcreteProductB" data-source-line="10" id="ent0006"><rect fill="#F1F1F1" height="48" rx="2.5" ry="2.5" style="stroke:#181818;stroke-width:0.5;" width="158.6973" x="101" y="453.7969"/><ellipse cx="116" cy="469.7969" fill="#ADD1B2" rx="11" ry="11" style="stroke:#181818;stroke-width:1;"/><path d="M118.9688,475.4375 Q118.3906,475.7344 117.75,475.875 Q117.1094,476.0313 116.4063,476.0313 Q113.9063,476.0313 112.5781,474.3906 Q111.2656,472.7344 111.2656,469.6094 Q111.2656,466.4844 112.5781,464.8281 Q113.9063,463.1719 116.4063,463.1719 Q117.1094,463.1719 117.75,463.3281 Q118.4063,463.4844 118.9688,463.7813 L118.9688,466.5 Q118.3438,465.9219 117.75,465.6563 Q117.1563,465.375 116.5313,465.375 Q115.1875,465.375 114.5,466.4531 Q113.8125,467.5156 113.8125,469.6094 Q113.8125,471.7031 114.5,472.7813 Q115.1875,473.8438 116.5313,473.8438 Q117.1563,473.8438 117.75,473.5781 Q118.3438,473.2969 118.9688,472.7188 L118.9688,475.4375 Z " fill="#000000"/><text fill="#000000" font-family="sans-serif" font-size="14" lengthAdjust="spacing" textLength="126.6973" x="130" y="474.6436">ConcreteProductB</text><line style="stroke:#181818;stroke-width:0.5;" x1="102" x2="258.6973" y1="485.7969" y2="485.7969"/><line style="stroke:#181818;stroke-width:0.5;" x1="102" x2="258.6973" y1="493.7969" y2="493.7969"/></g><!--class ConcreteCreatorA--><g class="entity" data-qualified-name="ConcreteCreatorA" data-source-line="12" id="ent0008"><rect fill="#F1F1F1" height="64.2969" rx="2.5" ry="2.5" style="stroke:#181818;stroke-width:0.5;" width="201.6084" x="465.5" y="309.2969"/><ellipse cx="500.3514" cy="325.2969" fill="#ADD1B2" rx="11" ry="11" style="stroke:#181818;stroke-width:1;"/><path d="M503.3202,330.9375 Q502.742,331.2344 502.1014,331.375 Q501.4608,331.5313 500.7577,331.5313 Q498.2577,331.5313 496.9295,329.8906 Q495.617,328.2344 495.617,325.1094 Q495.617,321.9844 496.9295,320.3281 Q498.2577,318.6719 500.7577,318.6719 Q501.4608,318.6719 502.1014,318.8281 Q502.7577,318.9844 503.3202,319.2813 L503.3202,322 Q502.6952,321.4219 502.1014,321.1563 Q501.5077,320.875 500.8827,320.875 Q499.5389,320.875 498.8514,321.9531 Q498.1639,323.0156 498.1639,325.1094 Q498.1639,327.2031 498.8514,328.2813 Q499.5389,329.3438 500.8827,329.3438 Q501.5077,329.3438 502.1014,329.0781 Q502.6952,328.7969 503.3202,328.2188 L503.3202,330.9375 Z " fill="#000000"/><text fill="#000000" font-family="sans-serif" font-size="14" lengthAdjust="spacing" textLength="125.4941" x="518.7628" y="330.1436">ConcreteCreatorA</text><line style="stroke:#181818;stroke-width:0.5;" x1="466.5" x2="666.1084" y1="341.2969" y2="341.2969"/><line style="stroke:#181818;stroke-width:0.5;" x1="466.5" x2="666.1084" y1="349.2969" y2="349.2969"/><g data-visibility-modifier="PUBLIC_METHOD"><ellipse cx="476.5" cy="362.9453" fill="#84BE84" rx="3" ry="3" style="stroke:#038048;stroke-width:1;"/></g><text fill="#000000" font-family="sans-serif" font-size="14" lengthAdjust="spacing" textLength="175.6084" x="485.5" y="366.292">factoryMethod(): Product</text></g><!--class ConcreteCreatorB--><g class="entity" data-qualified-name="ConcreteCreatorB" data-source-line="16" id="ent0010"><rect fill="#F1F1F1" height="64.2969" rx="2.5" ry="2.5" style="stroke:#181818;stroke-width:0.5;" width="201.6084" x="79.5" y="309.2969"/><ellipse cx="114.3391" cy="325.2969" fill="#ADD1B2" rx="11" ry="11" style="stroke:#181818;stroke-width:1;"/><path d="M117.3079,330.9375 Q116.7297,331.2344 116.0891,331.375 Q115.4485,331.5313 114.7454,331.5313 Q112.2454,331.5313 110.9172,329.8906 Q109.6047,328.2344 109.6047,325.1094 Q109.6047,321.9844 110.9172,320.3281 Q112.2454,318.6719 114.7454,318.6719 Q115.4485,318.6719 116.0891,318.8281 Q116.7454,318.9844 117.3079,319.2813 L117.3079,322 Q116.6829,321.4219 116.0891,321.1563 Q115.4954,320.875 114.8704,320.875 Q113.5266,320.875 112.8391,321.9531 Q112.1516,323.0156 112.1516,325.1094 Q112.1516,327.2031 112.8391,328.2813 Q113.5266,329.3438 114.8704,329.3438 Q115.4954,329.3438 116.0891,329.0781 Q116.6829,328.7969 117.3079,328.2188 L117.3079,330.9375 Z " fill="#000000"/><text fill="#000000" font-family="sans-serif" font-size="14" lengthAdjust="spacing" textLength="125.5215" x="132.7478" y="330.1436">ConcreteCreatorB</text><line style="stroke:#181818;stroke-width:0.5;" x1="80.5" x2="280.1084" y1="341.2969" y2="341.2969"/><line style="stroke:#181818;stroke-width:0.5;" x1="80.5" x2="280.1084" y1="349.2969" y2="349.2969"/><g data-visibility-modifier="PUBLIC_METHOD"><ellipse cx="90.5" cy="362.9453" fill="#84BE84" rx="3" ry="3" style="stroke:#038048;stroke-width:1;"/></g><text fill="#000000" font-family="sans-serif" font-size="14" lengthAdjust="spacing" textLength="175.6084" x="99.5" y="366.292">factoryMethod(): Product</text></g><g class="entity" data-qualified-name="GMN14" data-source-line="24" id="ent0015"><path d="M295,450.2969 L295,505.6953 A0,0 0 0 0 295,505.6953 L452.4238,505.6953 A0,0 0 0 0 452.4238,505.6953 L452.4238,460.2969 L442.4238,450.2969 L377.5,450.2969 L373.5,369.5169 L369.5,450.2969 L295,450.2969 A0,0 0 0 0 295,450.2969" fill="#FEFFDD" style="stroke:#181818;stroke-width:0.5;"/><path d="M442.4238,450.2969 L442.4238,460.2969 L452.4238,460.2969 L442.4238,450.2969" fill="#FEFFDD" style="stroke:#181818;stroke-width:0.5;"/><text fill="#000000" font-family="sans-serif" font-size="13" lengthAdjust="spacing" textLength="130.4189" x="301" y="467.3638">Base class/interface</text><text fill="#000000" font-family="sans-serif" font-size="13" lengthAdjust="spacing" textLength="127.6577" x="301" y="482.4966">of products created</text><text fill="#000000" font-family="sans-serif" font-size="13" lengthAdjust="spacing" textLength="136.4238" x="301" y="497.6294">by a factory method.</text></g><g class="entity" data-qualified-name="GMN17" data-source-line="30" id="ent0018"><path d="M481.5,566.2969 L481.5,621.6953 A0,0 0 0 0 481.5,621.6953 L651.1367,621.6953 A0,0 0 0 0 651.1367,621.6953 L651.1367,576.2969 L641.1367,566.2969 L570.5,566.2969 L566.5,501.8669 L562.5,566.2969 L481.5,566.2969 A0,0 0 0 0 481.5,566.2969" fill="#FEFFDD" style="stroke:#181818;stroke-width:0.5;"/><path d="M641.1367,566.2969 L641.1367,576.2969 L651.1367,576.2969 L641.1367,566.2969" fill="#FEFFDD" style="stroke:#181818;stroke-width:0.5;"/><text fill="#000000" font-family="sans-serif" font-size="13" lengthAdjust="spacing" textLength="102.5972" x="487.5" y="583.3638">Implements the</text><text fill="#000000" font-family="sans-serif" font-size="13" lengthAdjust="spacing" textLength="148.6367" x="487.5" y="598.4966">Product interface/class</text><text fill="#000000" font-family="sans-serif" font-size="13" lengthAdjust="spacing" textLength="122.2114" x="487.5" y="613.6294">for A type Product.</text></g><g class="entity" data-qualified-name="GMN20" data-source-line="36" id="ent0021"><path d="M95.5,566.2969 L95.5,621.6953 A0,0 0 0 0 95.5,621.6953 L265.1367,621.6953 A0,0 0 0 0 265.1367,621.6953 L265.1367,576.2969 L255.1367,566.2969 L184.5,566.2969 L180.5,501.8669 L176.5,566.2969 L95.5,566.2969 A0,0 0 0 0 95.5,566.2969" fill="#FEFFDD" style="stroke:#181818;stroke-width:0.5;"/><path d="M255.1367,566.2969 L255.1367,576.2969 L265.1367,576.2969 L255.1367,566.2969" fill="#FEFFDD" style="stroke:#181818;stroke-width:0.5;"/><text fill="#000000" font-family="sans-serif" font-size="13" lengthAdjust="spacing" textLength="102.5972" x="101.5" y="583.3638">Implements the</text><text fill="#000000" font-family="sans-serif" font-size="13" lengthAdjust="spacing" textLength="148.6367" x="101.5" y="598.4966">Product interface/class</text><text fill="#000000" font-family="sans-serif" font-size="13" lengthAdjust="spacing" textLength="122.2368" x="101.5" y="613.6294">for B type Product.</text></g><g class="entity" data-qualified-name="GMN23" data-source-line="42" id="ent0024"><path d="M234.5,43.2969 L234.5,98.6953 A0,0 0 0 0 234.5,98.6953 L369.5,98.6953 L373.5,159.0469 L377.5,98.6953 L512.7959,98.6953 A0,0 0 0 0 512.7959,98.6953 L512.7959,53.2969 L502.7959,43.2969 L234.5,43.2969 A0,0 0 0 0 234.5,43.2969" fill="#FEFFDD" style="stroke:#181818;stroke-width:0.5;"/><path d="M502.7959,43.2969 L502.7959,53.2969 L512.7959,53.2969 L502.7959,43.2969" fill="#FEFFDD" style="stroke:#181818;stroke-width:0.5;"/><text fill="#000000" font-family="sans-serif" font-size="13" lengthAdjust="spacing" textLength="257.2959" x="240.5" y="60.3638">- Declares the abstract factory method.</text><text fill="#000000" font-family="sans-serif" font-size="13" lengthAdjust="spacing" textLength="249.2471" x="240.5" y="75.4966">- Additionally uses the factory method</text><text fill="#000000" font-family="sans-serif" font-size="13" lengthAdjust="spacing" textLength="116.873" x="248.7646" y="90.6294">to create Product.</text></g><g class="entity" data-qualified-name="GMN26" data-source-line="48" id="ent0027"><path d="M510,176.2969 L510,231.6953 A0,0 0 0 0 510,231.6953 L609.84,231.6953 L580.2,308.8269 L617.84,231.6953 L740.9678,231.6953 A0,0 0 0 0 740.9678,231.6953 L740.9678,186.2969 L730.9678,176.2969 L510,176.2969 A0,0 0 0 0 510,176.2969" fill="#FEFFDD" style="stroke:#181818;stroke-width:0.5;"/><path d="M730.9678,176.2969 L730.9678,186.2969 L740.9678,186.2969 L730.9678,176.2969" fill="#FEFFDD" style="stroke:#181818;stroke-width:0.5;"/><text fill="#000000" font-family="sans-serif" font-size="13" lengthAdjust="spacing" textLength="209.9678" x="516" y="193.3638">Implements factory method and</text><text fill="#000000" font-family="sans-serif" font-size="13" lengthAdjust="spacing" textLength="207.0859" x="516" y="208.4966">returns one of concrete Product</text><text fill="#000000" font-family="sans-serif" font-size="13" lengthAdjust="spacing" textLength="176.0713" x="516" y="223.6294">instance of type A Product.</text></g><g class="entity" data-qualified-name="GMN29" data-source-line="54" id="ent0030"><path d="M6,176.2969 L6,231.6953 A0,0 0 0 0 6,231.6953 L129.16,231.6953 L166.8,308.8269 L137.16,231.6953 L236.9678,231.6953 A0,0 0 0 0 236.9678,231.6953 L236.9678,186.2969 L226.9678,176.2969 L6,176.2969 A0,0 0 0 0 6,176.2969" fill="#FEFFDD" style="stroke:#181818;stroke-width:0.5;"/><path d="M226.9678,176.2969 L226.9678,186.2969 L236.9678,186.2969 L226.9678,176.2969" fill="#FEFFDD" style="stroke:#181818;stroke-width:0.5;"/><text fill="#000000" font-family="sans-serif" font-size="13" lengthAdjust="spacing" textLength="209.9678" x="12" y="193.3638">Implements factory method and</text><text fill="#000000" font-family="sans-serif" font-size="13" lengthAdjust="spacing" textLength="207.0859" x="12" y="208.4966">returns one of concrete Product</text><text fill="#000000" font-family="sans-serif" font-size="13" lengthAdjust="spacing" textLength="176.0967" x="12" y="223.6294">instance of type B Product.</text></g><!--reverse link Product to ConcreteProductA--><g class="link" data-entity-1="ent0002" data-entity-2="ent0004" data-link-type="extension" data-source-line="9" id="lnk5"><path d="M427.3281,379.8079 C462.7881,404.5179 499.77,430.2969 533.29,453.6469" fill="none" id="Product-backto-ConcreteProductA" style="stroke:#181818;stroke-width:1;stroke-dasharray:7,7;"/><polygon fill="none" points="412.56,369.5169,423.8977,384.7306,430.7584,374.8852,412.56,369.5169" style="stroke:#181818;stroke-width:1;"/></g><!--reverse link Product to ConcreteProductB--><g class="link" data-entity-1="ent0002" data-entity-2="ent0006" data-link-type="extension" data-source-line="10" id="lnk7"><path d="M319.6719,379.8079 C284.2119,404.5179 247.23,430.2969 213.71,453.6469" fill="none" id="Product-backto-ConcreteProductB" style="stroke:#181818;stroke-width:1;stroke-dasharray:7,7;"/><polygon fill="none" points="334.44,369.5169,316.2416,374.8852,323.1023,384.7306,334.44,369.5169" style="stroke:#181818;stroke-width:1;"/></g><!--reverse link Creator to ConcreteCreatorA--><g class="link" data-entity-1="ent0003" data-entity-2="ent0008" data-link-type="extension" data-source-line="13" id="lnk9"><path d="M450.3632,258.7578 C478.5732,278.5578 496.56,291.1869 522.22,309.2069" fill="none" id="Creator-backto-ConcreteCreatorA" style="stroke:#181818;stroke-width:1;"/><polygon fill="none" points="435.63,248.4169,446.9162,263.6688,453.8101,253.8467,435.63,248.4169" style="stroke:#181818;stroke-width:1;"/></g><!--reverse link Creator to ConcreteCreatorB--><g class="link" data-entity-1="ent0003" data-entity-2="ent0010" data-link-type="extension" data-source-line="17" id="lnk11"><path d="M296.6368,258.7578 C268.4268,278.5578 250.44,291.1869 224.78,309.2069" fill="none" id="Creator-backto-ConcreteCreatorB" style="stroke:#181818;stroke-width:1;"/><polygon fill="none" points="311.37,248.4169,293.1899,253.8467,300.0838,263.6688,311.37,248.4169" style="stroke:#181818;stroke-width:1;"/></g><!--link ConcreteCreatorA to ConcreteProductA--><g class="link" data-entity-1="ent0008" data-entity-2="ent0004" data-link-type="dependency" data-source-line="20" id="lnk12"><path codeLine="20" d="M566.5,373.4969 C566.5,398.0169 566.5,425.6169 566.5,447.7569" fill="none" id="ConcreteCreatorA-to-ConcreteProductA" style="stroke:#181818;stroke-width:1;stroke-dasharray:7,7;"/><polygon fill="#181818" points="566.5,453.7569,570.5,444.7569,566.5,448.7569,562.5,444.7569,566.5,453.7569" style="stroke:#181818;stroke-width:1;"/><text fill="#000000" font-family="sans-serif" font-size="13" lengthAdjust="spacing" textLength="48.3247" x="567.5" y="416.3638">creates</text></g><!--link ConcreteCreatorB to ConcreteProductB--><g class="link" data-entity-1="ent0010" data-entity-2="ent0006" data-link-type="dependency" data-source-line="21" id="lnk13"><path codeLine="21" d="M180.5,373.4969 C180.5,398.0169 180.5,425.6169 180.5,447.7569" fill="none" id="ConcreteCreatorB-to-ConcreteProductB" style="stroke:#181818;stroke-width:1;stroke-dasharray:7,7;"/><polygon fill="#181818" points="180.5,453.7569,184.5,444.7569,180.5,448.7569,176.5,444.7569,180.5,453.7569" style="stroke:#181818;stroke-width:1;"/><text fill="#000000" font-family="sans-serif" font-size="13" lengthAdjust="spacing" textLength="48.3247" x="181.5" y="416.3638">creates</text></g><?plantuml-src jPF1Ri8m38RlUGeVGHDmHmYf6PeqQMXSzW0XTQ5IcrI9aLPDlFkSDXHe1nk7dIh5N_x_jvrIJWN2n_eDLhdQELN215wK9kjgM2FjRGehzFdEm4OHeJD2v8Q_cT886sVJWoPOBBgpvHA-Za9jFJbM0Lqex-7PeM95vaw5W0c0fworQfr6u_b9CjIyBV6zGgSejsOq5aSXefmrsY5XP1F8owh04WtvBXA7-16MD-0U7HCdW9-49ZstS3_rBHtvkCuWoNIw77O-1ntgwCN0yGTUNl32M4BOMY9RWiqk1Y-LntPniswjVCnCrJ8-YgHykgr1GUm3ogQHgU1E8SWFJFhvMU3rl0xQ1v_JKZhlMPE5AndFBG6gg-xb_TrAFcubxrkHhHgVTjvyPy9_2jztsCX3zm_qfnF894tpyAnLKTHmyF7ADSaWi4iSzgyvUk_bkjzhPL0cg3D-SCQ3DHWKT5IuU0gvyQICRihDC987OyZ_YI67CRu1?></g></svg>