<?plantuml 1.2026.2?><svg xmlns="http://www.w3.org/2000/svg" xmlns:xlink="http://www.w3.org/1999/xlink" contentStyleType="text/css" data-diagram-type="CLASS" height="627px" preserveAspectRatio="none" style="width:668px;height:627px;background:#FFFFFF;" version="1.1" viewBox="0 0 668 627" width="668px" zoomAndPan="magnify"><title>UML Diagram - Object Pool</title><defs/><g><g class="title" data-source-line="1"><text fill="#000000" font-family="sans-serif" font-size="14" font-weight="bold" lengthAdjust="spacing" textLength="211.8594" x="221.3052" y="22.9951">UML Diagram - Object Pool</text></g><!--class Client--><g class="entity" data-qualified-name="Client" data-source-line="3" id="ent0002"><rect fill="#F1F1F1" height="48" rx="2.5" ry="2.5" style="stroke:#181818;stroke-width:0.5;" width="72.5303" x="201.5" y="46.7969"/><ellipse cx="216.5" cy="62.7969" fill="#ADD1B2" rx="11" ry="11" style="stroke:#181818;stroke-width:1;"/><path d="M219.4688,68.4375 Q218.8906,68.7344 218.25,68.875 Q217.6094,69.0313 216.9063,69.0313 Q214.4063,69.0313 213.0781,67.3906 Q211.7656,65.7344 211.7656,62.6094 Q211.7656,59.4844 213.0781,57.8281 Q214.4063,56.1719 216.9063,56.1719 Q217.6094,56.1719 218.25,56.3281 Q218.9063,56.4844 219.4688,56.7813 L219.4688,59.5 Q218.8438,58.9219 218.25,58.6563 Q217.6563,58.375 217.0313,58.375 Q215.6875,58.375 215,59.4531 Q214.3125,60.5156 214.3125,62.6094 Q214.3125,64.7031 215,65.7813 Q215.6875,66.8438 217.0313,66.8438 Q217.6563,66.8438 218.25,66.5781 Q218.8438,66.2969 219.4688,65.7188 L219.4688,68.4375 Z " fill="#000000"/><text fill="#000000" font-family="sans-serif" font-size="14" lengthAdjust="spacing" textLength="40.5303" x="230.5" y="67.6436">Client</text><line style="stroke:#181818;stroke-width:0.5;" x1="202.5" x2="273.0303" y1="78.7969" y2="78.7969"/><line style="stroke:#181818;stroke-width:0.5;" x1="202.5" x2="273.0303" y1="86.7969" y2="86.7969"/></g><!--class AbstractReusable--><g class="entity" data-qualified-name="AbstractReusable" data-source-line="5" id="ent0003"><rect fill="#F1F1F1" height="80.5938" rx="2.5" ry="2.5" style="stroke:#181818;stroke-width:0.5;" width="155.2451" x="243.5" y="381.2969"/><ellipse cx="258.5" cy="397.2969" fill="#A9DCDF" rx="11" ry="11" style="stroke:#181818;stroke-width:1;"/><path d="M258.6094,392.6406 L257.4531,397.7188 L259.7813,397.7188 L258.6094,392.6406 Z M257.125,390.4063 L260.1094,390.4063 L263.4688,402.7969 L261.0156,402.7969 L260.25,399.7344 L256.9688,399.7344 L256.2188,402.7969 L253.7813,402.7969 L257.125,390.4063 Z " fill="#000000"/><text fill="#000000" font-family="sans-serif" font-size="14" font-style="italic" lengthAdjust="spacing" textLength="123.2451" x="272.5" y="402.1436">AbstractReusable</text><line style="stroke:#181818;stroke-width:0.5;" x1="244.5" x2="397.7451" y1="413.2969" y2="413.2969"/><line style="stroke:#181818;stroke-width:0.5;" x1="244.5" x2="397.7451" y1="421.2969" y2="421.2969"/><g data-visibility-modifier="PUBLIC_METHOD"><ellipse cx="254.5" cy="434.9453" fill="#84BE84" rx="3" ry="3" style="stroke:#038048;stroke-width:1;"/></g><text fill="#000000" font-family="sans-serif" font-size="14" font-style="italic" lengthAdjust="spacing" textLength="116.9355" x="263.5" y="438.292">operation(): void</text><g data-visibility-modifier="PUBLIC_METHOD"><ellipse cx="254.5" cy="451.2422" fill="#84BE84" rx="3" ry="3" style="stroke:#038048;stroke-width:1;"/></g><text fill="#000000" font-family="sans-serif" font-size="14" font-style="italic" lengthAdjust="spacing" textLength="85.4834" x="263.5" y="454.5889">reset(): void</text></g><!--class ConcreteReusable--><g class="entity" data-qualified-name="ConcreteReusable" data-source-line="10" id="ent0004"><rect fill="#F1F1F1" height="96.8906" rx="2.5" ry="2.5" style="stroke:#181818;stroke-width:0.5;" width="159.8594" x="342" y="523.2969"/><ellipse cx="357" cy="539.2969" fill="#ADD1B2" rx="11" ry="11" style="stroke:#181818;stroke-width:1;"/><path d="M359.9688,544.9375 Q359.3906,545.2344 358.75,545.375 Q358.1094,545.5313 357.4063,545.5313 Q354.9063,545.5313 353.5781,543.8906 Q352.2656,542.2344 352.2656,539.1094 Q352.2656,535.9844 353.5781,534.3281 Q354.9063,532.6719 357.4063,532.6719 Q358.1094,532.6719 358.75,532.8281 Q359.4063,532.9844 359.9688,533.2813 L359.9688,536 Q359.3438,535.4219 358.75,535.1563 Q358.1563,534.875 357.5313,534.875 Q356.1875,534.875 355.5,535.9531 Q354.8125,537.0156 354.8125,539.1094 Q354.8125,541.2031 355.5,542.2813 Q356.1875,543.3438 357.5313,543.3438 Q358.1563,543.3438 358.75,543.0781 Q359.3438,542.7969 359.9688,542.2188 L359.9688,544.9375 Z " fill="#000000"/><text fill="#000000" font-family="sans-serif" font-size="14" lengthAdjust="spacing" textLength="127.8594" x="371" y="544.1436">ConcreteReusable</text><line style="stroke:#181818;stroke-width:0.5;" x1="343" x2="500.8594" y1="555.2969" y2="555.2969"/><g data-visibility-modifier="PRIVATE_FIELD"><rect fill="none" height="6" style="stroke:#C82930;stroke-width:1;" width="6" x="350" y="565.9453"/></g><text fill="#000000" font-family="sans-serif" font-size="14" lengthAdjust="spacing" textLength="71.3672" x="362" y="572.292">state: Any</text><line style="stroke:#181818;stroke-width:0.5;" x1="343" x2="500.8594" y1="579.5938" y2="579.5938"/><g data-visibility-modifier="PUBLIC_METHOD"><ellipse cx="353" cy="593.2422" fill="#84BE84" rx="3" ry="3" style="stroke:#038048;stroke-width:1;"/></g><text fill="#000000" font-family="sans-serif" font-size="14" lengthAdjust="spacing" textLength="116.9355" x="362" y="596.5889">operation(): void</text><g data-visibility-modifier="PUBLIC_METHOD"><ellipse cx="353" cy="609.5391" fill="#84BE84" rx="3" ry="3" style="stroke:#038048;stroke-width:1;"/></g><text fill="#000000" font-family="sans-serif" font-size="14" lengthAdjust="spacing" textLength="85.4834" x="362" y="612.8857">reset(): void</text></g><!--class ObjectPool--><g class="entity" data-qualified-name="ObjectPool" data-source-line="16" id="ent0006"><rect fill="#F1F1F1" height="129.4844" rx="2.5" ry="2.5" style="stroke:#181818;stroke-width:0.5;" width="384.4697" x="277" y="175.2969"/><ellipse cx="427.4556" cy="191.2969" fill="#ADD1B2" rx="11" ry="11" style="stroke:#181818;stroke-width:1;"/><path d="M430.4243,196.9375 Q429.8462,197.2344 429.2056,197.375 Q428.5649,197.5313 427.8618,197.5313 Q425.3618,197.5313 424.0337,195.8906 Q422.7212,194.2344 422.7212,191.1094 Q422.7212,187.9844 424.0337,186.3281 Q425.3618,184.6719 427.8618,184.6719 Q428.5649,184.6719 429.2056,184.8281 Q429.8618,184.9844 430.4243,185.2813 L430.4243,188 Q429.7993,187.4219 429.2056,187.1563 Q428.6118,186.875 427.9868,186.875 Q426.6431,186.875 425.9556,187.9531 Q425.2681,189.0156 425.2681,191.1094 Q425.2681,193.2031 425.9556,194.2813 Q426.6431,195.3438 427.9868,195.3438 Q428.6118,195.3438 429.2056,195.0781 Q429.7993,194.7969 430.4243,194.2188 L430.4243,196.9375 Z " fill="#000000"/><text fill="#000000" font-family="sans-serif" font-size="14" lengthAdjust="spacing" textLength="75.0586" x="447.9556" y="196.1436">ObjectPool</text><line style="stroke:#181818;stroke-width:0.5;" x1="278" x2="660.4697" y1="207.2969" y2="207.2969"/><g data-visibility-modifier="PRIVATE_FIELD"><rect fill="none" height="6" style="stroke:#C82930;stroke-width:1;" width="6" x="285" y="217.9453"/></g><text fill="#000000" font-family="sans-serif" font-size="14" lengthAdjust="spacing" textLength="243.5371" x="297" y="224.292">available: List&lt;AbstractReusable&gt;</text><g data-visibility-modifier="PRIVATE_FIELD"><rect fill="none" height="6" style="stroke:#C82930;stroke-width:1;" width="6" x="285" y="234.2422"/></g><text fill="#000000" font-family="sans-serif" font-size="14" lengthAdjust="spacing" textLength="219.2627" x="297" y="240.5889">inUse: List&lt;AbstractReusable&gt;</text><line style="stroke:#181818;stroke-width:0.5;" x1="278" x2="660.4697" y1="247.8906" y2="247.8906"/><g data-visibility-modifier="PUBLIC_METHOD"><ellipse cx="288" cy="261.5391" fill="#84BE84" rx="3" ry="3" style="stroke:#038048;stroke-width:1;"/></g><text fill="#000000" font-family="sans-serif" font-size="14" lengthAdjust="spacing" textLength="230.8018" x="297" y="264.8857">getReusable(): AbstractReusable</text><g data-visibility-modifier="PUBLIC_METHOD"><ellipse cx="288" cy="277.8359" fill="#84BE84" rx="3" ry="3" style="stroke:#038048;stroke-width:1;"/></g><text fill="#000000" font-family="sans-serif" font-size="14" lengthAdjust="spacing" textLength="358.4697" x="297" y="281.1826">releaseReusable(reusable: AbstractReusable): void</text><g data-visibility-modifier="PRIVATE_METHOD"><rect fill="#F24D5C" height="6" style="stroke:#C82930;stroke-width:1;" width="6" x="285" y="291.1328"/></g><text fill="#000000" font-family="sans-serif" font-size="14" lengthAdjust="spacing" textLength="252.5605" x="297" y="297.4795">createReusable(): AbstractReusable</text></g><g class="entity" data-qualified-name="GMN11" data-source-line="30" id="ent0012"><path d="M6,401.7969 L6,442.0625 A0,0 0 0 0 6,442.0625 L207.8765,442.0625 A0,0 0 0 0 207.8765,442.0625 L207.8765,425.7969 L243.41,421.7969 L207.8765,417.7969 L207.8765,411.7969 L197.8765,401.7969 L6,401.7969 A0,0 0 0 0 6,401.7969" fill="#FEFFDD" style="stroke:#181818;stroke-width:0.5;"/><path d="M197.8765,401.7969 L197.8765,411.7969 L207.8765,411.7969 L197.8765,401.7969" fill="#FEFFDD" style="stroke:#181818;stroke-width:0.5;"/><text fill="#000000" font-family="sans-serif" font-size="13" lengthAdjust="spacing" textLength="130.1714" x="12" y="418.8638">Declares operations</text><text fill="#000000" font-family="sans-serif" font-size="13" lengthAdjust="spacing" textLength="180.8765" x="12" y="433.9966">and life-cycle hooks (reset).</text></g><g class="entity" data-qualified-name="GMN14" data-source-line="35" id="ent0015"><path d="M165.5,544.2969 L165.5,599.6953 A0,0 0 0 0 165.5,599.6953 L306.3882,599.6953 A0,0 0 0 0 306.3882,599.6953 L306.3882,575.7969 L341.93,571.7969 L306.3882,567.7969 L306.3882,554.2969 L296.3882,544.2969 L165.5,544.2969 A0,0 0 0 0 165.5,544.2969" fill="#FEFFDD" style="stroke:#181818;stroke-width:0.5;"/><path d="M296.3882,544.2969 L296.3882,554.2969 L306.3882,554.2969 L296.3882,544.2969" fill="#FEFFDD" style="stroke:#181818;stroke-width:0.5;"/><text fill="#000000" font-family="sans-serif" font-size="13" lengthAdjust="spacing" textLength="119.8882" x="171.5" y="561.3638">Implementation of</text><text fill="#000000" font-family="sans-serif" font-size="13" lengthAdjust="spacing" textLength="110.6016" x="171.5" y="576.4966">reusable product</text><text fill="#000000" font-family="sans-serif" font-size="13" lengthAdjust="spacing" textLength="68.7769" x="171.5" y="591.6294">with state.</text></g><g class="entity" data-qualified-name="GMN17" data-source-line="41" id="ent0018"><path d="M345.5,50.7969 L345.5,91.0625 A0,0 0 0 0 345.5,91.0625 L465,91.0625 L469,174.9869 L473,91.0625 L592.4194,91.0625 A0,0 0 0 0 592.4194,91.0625 L592.4194,60.7969 L582.4194,50.7969 L345.5,50.7969 A0,0 0 0 0 345.5,50.7969" fill="#FEFFDD" style="stroke:#181818;stroke-width:0.5;"/><path d="M582.4194,50.7969 L582.4194,60.7969 L592.4194,60.7969 L582.4194,50.7969" fill="#FEFFDD" style="stroke:#181818;stroke-width:0.5;"/><text fill="#000000" font-family="sans-serif" font-size="13" lengthAdjust="spacing" textLength="225.9194" x="351.5" y="67.8638">Caches instances, manages reuse,</text><text fill="#000000" font-family="sans-serif" font-size="13" lengthAdjust="spacing" textLength="183.3647" x="351.5" y="82.9966">and handles reset life-cycle.</text></g><g class="entity" data-qualified-name="GMN20" data-source-line="46" id="ent0021"><path d="M14,43.2969 L14,98.6953 A0,0 0 0 0 14,98.6953 L166.3965,98.6953 A0,0 0 0 0 166.3965,98.6953 L166.3965,74.7969 L201.45,70.7969 L166.3965,66.7969 L166.3965,53.2969 L156.3965,43.2969 L14,43.2969 A0,0 0 0 0 14,43.2969" fill="#FEFFDD" style="stroke:#181818;stroke-width:0.5;"/><path d="M156.3965,43.2969 L156.3965,53.2969 L166.3965,53.2969 L156.3965,43.2969" fill="#FEFFDD" style="stroke:#181818;stroke-width:0.5;"/><text fill="#000000" font-family="sans-serif" font-size="13" lengthAdjust="spacing" textLength="109.021" x="20" y="60.3638">Uses Object Pool</text><text fill="#000000" font-family="sans-serif" font-size="13" lengthAdjust="spacing" textLength="104.5078" x="20" y="75.4966">to get instances</text><text fill="#000000" font-family="sans-serif" font-size="13" lengthAdjust="spacing" textLength="131.3965" x="20" y="90.6294">of reusable product.</text></g><!--reverse link AbstractReusable to ConcreteReusable--><g class="link" data-entity-1="ent0003" data-entity-2="ent0004" data-link-type="extension" data-source-line="11" id="lnk5"><path d="M358.2103,477.3288 C370.9403,495.9988 376.1,503.5369 389.46,523.1169" fill="none" id="AbstractReusable-backto-ConcreteReusable" style="stroke:#181818;stroke-width:1;"/><polygon fill="none" points="348.07,462.4569,353.253,480.7089,363.1676,473.9487,348.07,462.4569" style="stroke:#181818;stroke-width:1;"/></g><!--link ObjectPool to AbstractReusable--><g class="link" data-entity-1="ent0006" data-entity-2="ent0003" data-link-type="aggregation" data-source-line="24" id="lnk7"><path codeLine="24" d="M399.6614,313.3255 C390.8214,323.1455 390.03,324.3969 382,334.2969 C369.96,349.1369 361.0434,361.2624 350.6534,376.2824" fill="none" id="ObjectPool-AbstractReusable" style="stroke:#181818;stroke-width:1;"/><polygon fill="none" points="407.69,304.4069,400.7028,306.19,399.6614,313.3255,406.6486,311.5424,407.69,304.4069" style="stroke:#181818;stroke-width:1;"/><polygon fill="#181818" points="347.24,381.2169,355.6497,376.0908,350.0845,377.1048,349.0704,371.5396,347.24,381.2169" style="stroke:#181818;stroke-width:1;"/><text fill="#000000" font-family="sans-serif" font-size="13" lengthAdjust="spacing" textLength="59.8584" x="383" y="347.3638">manages</text><text fill="#000000" font-family="sans-serif" font-size="13" lengthAdjust="spacing" textLength="23.0356" x="326.664" y="370.3652">0..*</text></g><!--link ObjectPool to ConcreteReusable--><g class="link" data-entity-1="ent0006" data-entity-2="ent0004" data-link-type="dependency" data-source-line="25" id="lnk8"><path codeLine="25" d="M459.94,304.4269 C450.83,368.3869 437.8356,459.5868 429.6356,517.1868" fill="none" id="ObjectPool-to-ConcreteReusable" style="stroke:#181818;stroke-width:1;stroke-dasharray:7,7;"/><polygon fill="#181818" points="428.79,523.1269,434.0185,514.7805,429.4947,518.1768,426.0984,513.653,428.79,523.1269" style="stroke:#181818;stroke-width:1;"/><text fill="#000000" font-family="sans-serif" font-size="13" lengthAdjust="spacing" textLength="48.3247" x="450" y="426.3638">creates</text></g><!--link Client to ObjectPool--><g class="link" data-entity-1="ent0002" data-entity-2="ent0006" data-link-type="dependency" data-source-line="26" id="lnk9"><path codeLine="26" d="M268.28,94.8869 C287.56,109.4869 313.11,128.6769 336,145.2969 C349.47,155.0869 358.9028,161.8602 372.9728,171.8202" fill="none" id="Client-to-ObjectPool" style="stroke:#181818;stroke-width:1;stroke-dasharray:7,7;"/><polygon fill="#181818" points="377.87,175.2869,372.8353,166.8221,373.789,172.398,368.2131,173.3517,377.87,175.2869" style="stroke:#181818;stroke-width:1;"/><text fill="#000000" font-family="sans-serif" font-size="13" lengthAdjust="spacing" textLength="123.5825" x="337" y="141.3638">requests / releases</text></g><!--link Client to AbstractReusable--><g class="link" data-entity-1="ent0002" data-entity-2="ent0003" data-link-type="dependency" data-source-line="27" id="lnk10"><path codeLine="27" d="M229.79,94.8169 C215.88,137.6169 191.71,231.6969 219,304.2969 C230.07,333.7369 248.0345,356.4075 268.9445,376.8975" fill="none" id="Client-to-AbstractReusable" style="stroke:#181818;stroke-width:1;stroke-dasharray:7,7;"/><polygon fill="#181818" points="273.23,381.0969,269.6014,371.9408,269.6588,377.5974,264.0022,377.6548,273.23,381.0969" style="stroke:#181818;stroke-width:1;"/><text fill="#000000" font-family="sans-serif" font-size="13" lengthAdjust="spacing" textLength="38.9175" x="220" y="244.3638">&#171;use&#187;</text></g><?plantuml-src VLFHRe9G37s_Nz7uf9kmFHD3OlHbYSkM9Nx05QhSxNglezND6Fzz1H4GTIy4sjDpUjh2XYt2_7K6KwDNkLv306-BJqmOthstIYLM4y746dGCXwDIUa6SQycVCkFgymEtf1V2TL00Zt0umuxWDvXhDjxr1n7il4cxW1m9kKuUQqtlaXmPQsRyPNJf7Sa0Y3LZ16EtBmLkozxHEbak75TaUgUDBSWZc1dYKLSpBb76pUa_n2Eii0uKgbrGrPD5JRNFVbwzNCCR9m78R7Gpd9laOgzbp0T13BtdC7peNOymWhLsUeK4xP8mZA_N45NIfAghA52jeaWCVM-HcE3fxEq2UqDyDDeInh5IpZE2nIM3NzwQrXHbORB4PhqaKUrIi6Q9GR9FX2_p_ekWN-vw42ev6YXuE-nTOyBpijvON4kV9RE097RU1cnodsuJbj2FuUnqRbVax3S5TpCEWKzqaad7nac9Iv26zQmBRXnM1Z9vs38eRRVit3TGZbIgvGZfugy5wQCulKPJGbBHzT9G_m40?></g></svg>